<svg>
  <symbol id="external" fill="currentColor" xmlns="http://www.w3.org/2000/svg" viewBox="0 0 20 20">
    <path d="M11 3a1 1 0 100 2h2.586l-6.293 6.293a1 1 0 101.414 1.414L15 6.414V9a1 1 0 102 0V4a1 1 0 00-1-1h-5z"></path>
    <path d="M5 5a2 2 0 00-2 2v8a2 2 0 002 2h8a2 2 0 002-2v-3a1 1 0 10-2 0v3H5V7h3a1 1 0 000-2H5z"></path>
  </symbol>
  <symbol id="github" fill="currentColor" xmlns="http://www.w3.org/2000/svg" viewBox="0 0 16 16">
    <path fill-rule="evenodd" d="M8 0C3.58 0 0 3.58 0 8c0 3.54 2.29 6.53 5.47 7.59.4.07.55-.17.55-.38 0-.19-.01-.82-.01-1.49-2.01.37-2.53-.49-2.69-.94-.09-.23-.48-.94-.82-1.13-.28-.15-.68-.52-.01-.53.63-.01 1.08.58 1.23.82.72 1.21 1.87.87 2.33.66.07-.52.28-.87.51-1.07-1.78-.2-3.64-.89-3.64-3.95 0-.87.31-1.59.82-2.15-.08-.2-.36-1.02.08-2.12 0 0 .67-.21 2.2.82.64-.18 1.32-.27 2-.27.68 0 1.36.09 2 .27 1.53-1.04 2.2-.82 2.2-.82.44 1.1.16 1.92.08 2.12.51.56.82 1.27.82 2.15 0 3.07-1.87 3.75-3.65 3.95.29.25.54.73.54 1.48 0 1.07-.01 1.93-.01 2.2 0 .21.15.46.55.38A8.013 8.013 0 0016 8c0-4.42-3.58-8-8-8z"></path>
  </symbol>
  <symbol id="linkedin" fill="currentColor" xmlns="http://www.w3.org/2000/svg" viewBox="0 0 27 27">
    <path d="M1.91 0h22.363a1.91 1.91 0 011.909 1.91v22.363a1.91 1.91 0 01-1.91 1.909H1.91A1.91 1.91 0 010 24.272V1.91A1.91 1.91 0 011.91 0zm1.908 22.364h3.818V9.818H3.818zM8.182 5.727a2.455 2.455 0 10-4.91 0 2.455 2.455 0 004.91 0zm2.182 4.091v12.546h3.818v-6.077c0-2.037.75-3.332 2.553-3.332 1.3 0 1.81 1.201 1.81 3.332v6.077h3.819v-6.93c0-3.74-.895-5.78-4.667-5.78-1.967 0-3.277.921-3.788 1.946V9.818z" fill-rule="evenodd"></path>
  </symbol>
  <symbol id="twitter" fill="currentColor" xmlns="http://www.w3.org/2000/svg" viewBox="0 0 24 24">
    <path d="M24 4.37a9.6 9.6 0 0 1-2.83.8 5.04 5.04 0 0 0 2.17-2.8c-.95.58-2 1-3.13 1.22A4.86 4.86 0 0 0 16.61 2a4.99 4.99 0 0 0-4.79 6.2A13.87 13.87 0 0 1 1.67 2.92 5.12 5.12 0 0 0 3.2 9.67a4.82 4.82 0 0 1-2.23-.64v.07c0 2.44 1.7 4.48 3.95 4.95a4.84 4.84 0 0 1-2.22.08c.63 2.01 2.45 3.47 4.6 3.51A9.72 9.72 0 0 1 0 19.74 13.68 13.68 0 0 0 7.55 22c9.06 0 14-7.7 14-14.37v-.65c.96-.71 1.79-1.6 2.45-2.61z"></path>
  </symbol>
  <symbol id="document" stroke="currentColor"  xmlns="http://www.w3.org/2000/svg" fill="none" viewBox="0 0 24 24" stroke-width="2">
    <path stroke-linecap="round" stroke-linejoin="round" d="M9 12h6m-6 4h6m2 5H7a2 2 0 01-2-2V5a2 2 0 012-2h5.586a1 1 0 01.707.293l5.414 5.414a1 1 0 01.293.707V19a2 2 0 01-2 2z" />
  </symbol>
  <symbol id="search" stroke="currentColor" xmlns="http://www.w3.org/2000/svg" fill="none" viewBox="0 0 24 24" stroke-width="2">
    <path stroke-linecap="round" stroke-linejoin="round" d="M10 21h7a2 2 0 002-2V9.414a1 1 0 00-.293-.707l-5.414-5.414A1 1 0 0012.586 3H7a2 2 0 00-2 2v11m0 5l4.879-4.879m0 0a3 3 0 104.243-4.242 3 3 0 00-4.243 4.242z" />
  </symbol>
  <symbol id="clock" stroke="currentColor" xmlns="http://www.w3.org/2000/svg" fill="none" viewBox="0 0 24 24" stroke-width="2">
    <path stroke-linecap="round" stroke-linejoin="round" d="M12 8v4l3 3m6-3a9 9 0 11-18 0 9 9 0 0118 0z" />
  </symbol>
  <symbol id="calendar" stroke="currentColor" xmlns="http://www.w3.org/2000/svg"  fill="none" viewBox="0 0 24 24" stroke-width="2">
    <path stroke-linecap="round" stroke-linejoin="round" d="M8 7V3m8 4V3m-9 8h10M5 21h14a2 2 0 002-2V7a2 2 0 00-2-2H5a2 2 0 00-2 2v12a2 2 0 002 2z" />
  </symbol>
</svg>