<svg xmlns="http://www.w3.org/2000/svg">
  <symbol id="external" fill="currentColor" viewBox="0 0 20 20">
    <path d="M11 3a1 1 0 100 2h2.586l-6.293 6.293a1 1 0 101.414 1.414L15 6.414V9a1 1 0 102 0V4a1 1 0 00-1-1h-5z"></path>
    <path d="M5 5a2 2 0 00-2 2v8a2 2 0 002 2h8a2 2 0 002-2v-3a1 1 0 10-2 0v3H5V7h3a1 1 0 000-2H5z"></path>
  </symbol>
  <symbol id="github" fill="currentColor" viewBox="0 0 16 16">
    <path fill-rule="evenodd" d="M8 0C3.58 0 0 3.58 0 8c0 3.54 2.29 6.53 5.47 7.59.4.07.55-.17.55-.38 0-.19-.01-.82-.01-1.49-2.01.37-2.53-.49-2.69-.94-.09-.23-.48-.94-.82-1.13-.28-.15-.68-.52-.01-.53.63-.01 1.08.58 1.23.82.72 1.21 1.87.87 2.33.66.07-.52.28-.87.51-1.07-1.78-.2-3.64-.89-3.64-3.95 0-.87.31-1.59.82-2.15-.08-.2-.36-1.02.08-2.12 0 0 .67-.21 2.2.82.64-.18 1.32-.27 2-.27.68 0 1.36.09 2 .27 1.53-1.04 2.2-.82 2.2-.82.44 1.1.16 1.92.08 2.12.51.56.82 1.27.82 2.15 0 3.07-1.87 3.75-3.65 3.95.29.25.54.73.54 1.48 0 1.07-.01 1.93-.01 2.2 0 .21.15.46.55.38A8.013 8.013 0 0016 8c0-4.42-3.58-8-8-8z"></path>
  </symbol>
  <symbol id="mail" viewBox="0 0 24 24" fill="currentColor">
    <path d="M1.5 8.67v8.58a3 3 0 003 3h15a3 3 0 003-3V8.67l-8.928 5.493a3 3 0 01-3.144 0L1.5 8.67z" />
    <path d="M22.5 6.908V6.75a3 3 0 00-3-3h-15a3 3 0 00-3 3v.158l9.714 5.978a1.5 1.5 0 001.572 0L22.5 6.908z" />
  </symbol>
  <symbol id="twitter" fill="currentColor" viewBox="0 0 24 24">
    <path d="M24 4.37a9.6 9.6 0 0 1-2.83.8 5.04 5.04 0 0 0 2.17-2.8c-.95.58-2 1-3.13 1.22A4.86 4.86 0 0 0 16.61 2a4.99 4.99 0 0 0-4.79 6.2A13.87 13.87 0 0 1 1.67 2.92 5.12 5.12 0 0 0 3.2 9.67a4.82 4.82 0 0 1-2.23-.64v.07c0 2.44 1.7 4.48 3.95 4.95a4.84 4.84 0 0 1-2.22.08c.63 2.01 2.45 3.47 4.6 3.51A9.72 9.72 0 0 1 0 19.74 13.68 13.68 0 0 0 7.55 22c9.06 0 14-7.7 14-14.37v-.65c.96-.71 1.79-1.6 2.45-2.61z"></path>
  </symbol>
  <symbol id="search" stroke="currentColor" fill="none" viewBox="0 0 24 24" stroke-width="2">
    <path stroke-linecap="round" stroke-linejoin="round" d="M10 21h7a2 2 0 002-2V9.414a1 1 0 00-.293-.707l-5.414-5.414A1 1 0 0012.586 3H7a2 2 0 00-2 2v11m0 5l4.879-4.879m0 0a3 3 0 104.243-4.242 3 3 0 00-4.243 4.242z" />
  </symbol>
  <symbol id="clock" viewBox="0 0 24 24" fill="currentColor">
    <path fill-rule="evenodd" d="M12 2.25c-5.385 0-9.75 4.365-9.75 9.75s4.365 9.75 9.75 9.75 9.75-4.365 9.75-9.75S17.385 2.25 12 2.25zM12.75 6a.75.75 0 00-1.5 0v6c0 .414.336.75.75.75h4.5a.75.75 0 000-1.5h-3.75V6z" clip-rule="evenodd" />
  </symbol>
  <symbol id="calendar" viewBox="0 0 24 24" fill="currentColor">
    <path d="M12.75 12.75a.75.75 0 11-1.5 0 .75.75 0 011.5 0zM7.5 15.75a.75.75 0 100-1.5.75.75 0 000 1.5zM8.25 17.25a.75.75 0 11-1.5 0 .75.75 0 011.5 0zM9.75 15.75a.75.75 0 100-1.5.75.75 0 000 1.5zM10.5 17.25a.75.75 0 11-1.5 0 .75.75 0 011.5 0zM12 15.75a.75.75 0 100-1.5.75.75 0 000 1.5zM12.75 17.25a.75.75 0 11-1.5 0 .75.75 0 011.5 0zM14.25 15.75a.75.75 0 100-1.5.75.75 0 000 1.5zM15 17.25a.75.75 0 11-1.5 0 .75.75 0 011.5 0zM16.5 15.75a.75.75 0 100-1.5.75.75 0 000 1.5zM15 12.75a.75.75 0 11-1.5 0 .75.75 0 011.5 0zM16.5 13.5a.75.75 0 100-1.5.75.75 0 000 1.5z" />
    <path fill-rule="evenodd" d="M6.75 2.25A.75.75 0 017.5 3v1.5h9V3A.75.75 0 0118 3v1.5h.75a3 3 0 013 3v11.25a3 3 0 01-3 3H5.25a3 3 0 01-3-3V7.5a3 3 0 013-3H6V3a.75.75 0 01.75-.75zm13.5 9a1.5 1.5 0 00-1.5-1.5H5.25a1.5 1.5 0 00-1.5 1.5v7.5a1.5 1.5 0 001.5 1.5h13.5a1.5 1.5 0 001.5-1.5v-7.5z" clip-rule="evenodd" />
  </symbol>
  <symbol id="tag" stroke="currentColor" fill="none" viewBox="0 0 24 24" stroke-width="2">
   <path stroke-linecap="round" stroke-linejoin="round" d="M7 7h.01M7 3h5c.512 0 1.024.195 1.414.586l7 7a2 2 0 010 2.828l-7 7a2 2 0 01-2.828 0l-7-7A1.994 1.994 0 013 12V7a4 4 0 014-4z" />
  </symbol>
  <symbol id="rss" stroke="currentColor" fill="none" viewBox="0 0 24 24" stroke-width="2">
    <path stroke-linecap="round" stroke-linejoin="round" d="M6 5c7.18 0 13 5.82 13 13M6 11a7 7 0 017 7m-6 0a1 1 0 11-2 0 1 1 0 012 0z" />
  </symbol>
  <symbol id="note" viewBox="0 0 24 24" fill="currentColor">
    <path d="M5.625 1.5c-1.036 0-1.875.84-1.875 1.875v17.25c0 1.035.84 1.875 1.875 1.875h12.75c1.035 0 1.875-.84 1.875-1.875V12.75A3.75 3.75 0 0016.5 9h-1.875a1.875 1.875 0 01-1.875-1.875V5.25A3.75 3.75 0 009 1.5H5.625z" />
    <path d="M12.971 1.816A5.23 5.23 0 0114.25 5.25v1.875c0 .207.168.375.375.375H16.5a5.23 5.23 0 013.434 1.279 9.768 9.768 0 00-6.963-6.963z" />
  </symbol>
  <symbol id="article" viewBox="0 0 24 24" fill="currentColor">
    <path fill-rule="evenodd" d="M5.625 1.5c-1.036 0-1.875.84-1.875 1.875v17.25c0 1.035.84 1.875 1.875 1.875h12.75c1.035 0 1.875-.84 1.875-1.875V12.75A3.75 3.75 0 0016.5 9h-1.875a1.875 1.875 0 01-1.875-1.875V5.25A3.75 3.75 0 009 1.5H5.625zM7.5 15a.75.75 0 01.75-.75h7.5a.75.75 0 010 1.5h-7.5A.75.75 0 017.5 15zm.75 2.25a.75.75 0 000 1.5H12a.75.75 0 000-1.5H8.25z" clip-rule="evenodd" />
    <path d="M12.971 1.816A5.23 5.23 0 0114.25 5.25v1.875c0 .207.168.375.375.375H16.5a5.23 5.23 0 013.434 1.279 9.768 9.768 0 00-6.963-6.963z" />
  </symbol>
  <symbol id="bookmark" viewBox="0 0 24 24" fill="currentColor">
    <path fill-rule="evenodd" d="M6 3a3 3 0 00-3 3v12a3 3 0 003 3h12a3 3 0 003-3V6a3 3 0 00-3-3H6zm1.5 1.5a.75.75 0 00-.75.75V16.5a.75.75 0 001.085.67L12 15.089l4.165 2.083a.75.75 0 001.085-.671V5.25a.75.75 0 00-.75-.75h-9z" clip-rule="evenodd" />
  </symbol>
  <symbol id="like" viewBox="0 0 24 24" fill="currentColor">
    <path d="M11.645 20.91l-.007-.003-.022-.012a15.247 15.247 0 01-.383-.218 25.18 25.18 0 01-4.244-3.17C4.688 15.36 2.25 12.174 2.25 8.25 2.25 5.322 4.714 3 7.688 3A5.5 5.5 0 0112 5.052 5.5 5.5 0 0116.313 3c2.973 0 5.437 2.322 5.437 5.25 0 3.925-2.438 7.111-4.739 9.256a25.175 25.175 0 01-4.244 3.17 15.247 15.247 0 01-.383.219l-.022.012-.007.004-.003.001a.752.752 0 01-.704 0l-.003-.001z" />
  </symbol>
  <symbol id="file" viewBox="0 0 24 24" fill="currentColor">
    <path d="M5.625 1.5c-1.036 0-1.875.84-1.875 1.875v17.25c0 1.035.84 1.875 1.875 1.875h12.75c1.035 0 1.875-.84 1.875-1.875V12.75A3.75 3.75 0 0016.5 9h-1.875a1.875 1.875 0 01-1.875-1.875V5.25A3.75 3.75 0 009 1.5H5.625z" />
    <path d="M12.971 1.816A5.23 5.23 0 0114.25 5.25v1.875c0 .207.168.375.375.375H16.5a5.23 5.23 0 013.434 1.279 9.768 9.768 0 00-6.963-6.963z" />
  </symbol>
</svg>